<svg xmlns="http://www.w3.org/2000/svg" version="1.1" xmlns:xlink="http://www.w3.org/1999/xlink" xmlns:svgjs="http://svgjs.dev/svgjs" viewBox="0 0 9.884473939183867 3.598064713045543"><g transform="matrix(1,0,0,1,0.4842110146657035,1.1085323565227716)"><g><path d=" M 0.099 0.901 Q 0.088 0.901 0.081 0.894 Q 0.074 0.887 0.074 0.876 L 0.074 0.22599999999999998 Q 0.074 0.21499999999999997 0.081 0.20799999999999996 Q 0.088 0.20099999999999996 0.099 0.20099999999999996 L 0.396 0.20099999999999996 Q 0.47900000000000004 0.20099999999999996 0.532 0.22499999999999998 Q 0.585 0.249 0.6105 0.29300000000000004 Q 0.636 0.33699999999999997 0.636 0.396 Q 0.636 0.433 0.6225 0.461 Q 0.609 0.489 0.5895 0.507 Q 0.5700000000000001 0.525 0.552 0.534 Q 0.591 0.552 0.6205 0.5935 Q 0.65 0.635 0.65 0.6920000000000001 Q 0.65 0.755 0.622 0.802 Q 0.594 0.849 0.539 0.875 Q 0.484 0.901 0.405 0.901 L 0.099 0.901 M 0.233 0.784 L 0.386 0.784 Q 0.435 0.784 0.46 0.7565000000000001 Q 0.485 0.729 0.485 0.6910000000000001 Q 0.485 0.652 0.4595 0.6255 Q 0.434 0.599 0.386 0.599 L 0.233 0.599 L 0.233 0.784 M 0.233 0.48400000000000004 L 0.377 0.48400000000000004 Q 0.424 0.48400000000000004 0.4475 0.4605 Q 0.47100000000000003 0.437 0.47100000000000003 0.4 Q 0.47100000000000003 0.363 0.4475 0.3405 Q 0.424 0.31800000000000006 0.377 0.31800000000000006 L 0.233 0.31800000000000006 L 0.233 0.48400000000000004 M 1.12311732421875 0.911 Q 1.03211732421875 0.911 0.96611732421875 0.881 Q 0.90011732421875 0.851 0.86311732421875 0.7905 Q 0.8261173242187501 0.73 0.8231173242187501 0.638 Q 0.8221173242187501 0.595 0.8221173242187501 0.5525 Q 0.8221173242187501 0.51 0.8231173242187501 0.466 Q 0.8261173242187501 0.376 0.86361732421875 0.3145 Q 0.90111732421875 0.253 0.96761732421875 0.22199999999999998 Q 1.03411732421875 0.19100000000000006 1.12311732421875 0.19100000000000006 Q 1.21111732421875 0.19100000000000006 1.27761732421875 0.22199999999999998 Q 1.34411732421875 0.253 1.38211732421875 0.3145 Q 1.42011732421875 0.376 1.4221173242187501 0.466 Q 1.42411732421875 0.51 1.42411732421875 0.5525 Q 1.42411732421875 0.595 1.4221173242187501 0.638 Q 1.41911732421875 0.73 1.38211732421875 0.7905 Q 1.3451173242187502 0.851 1.27911732421875 0.881 Q 1.21311732421875 0.911 1.12311732421875 0.911 M 1.12311732421875 0.782 Q 1.18111732421875 0.782 1.2186173242187501 0.7465 Q 1.25611732421875 0.7110000000000001 1.25811732421875 0.633 Q 1.26011732421875 0.589 1.26011732421875 0.5505 Q 1.26011732421875 0.512 1.25811732421875 0.46900000000000003 Q 1.25711732421875 0.41700000000000004 1.23911732421875 0.384 Q 1.22111732421875 0.351 1.19161732421875 0.3355 Q 1.16211732421875 0.32000000000000006 1.12311732421875 0.32000000000000006 Q 1.08411732421875 0.32000000000000006 1.05411732421875 0.3355 Q 1.02411732421875 0.351 1.00661732421875 0.384 Q 0.98911732421875 0.41700000000000004 0.98711732421875 0.46900000000000003 Q 0.98611732421875 0.512 0.98611732421875 0.5505 Q 0.98611732421875 0.589 0.98711732421875 0.633 Q 0.99011732421875 0.7110000000000001 1.0271173242187501 0.7465 Q 1.06411732421875 0.782 1.12311732421875 0.782 M 1.9102302539062501 0.911 Q 1.82223025390625 0.911 1.75623025390625 0.8815000000000001 Q 1.69023025390625 0.852 1.6542302539062501 0.7905 Q 1.61823025390625 0.729 1.61823025390625 0.634 L 1.61823025390625 0.22599999999999998 Q 1.61823025390625 0.21499999999999997 1.62523025390625 0.20799999999999996 Q 1.63223025390625 0.20099999999999996 1.64323025390625 0.20099999999999996 L 1.75223025390625 0.20099999999999996 Q 1.76323025390625 0.20099999999999996 1.77023025390625 0.20799999999999996 Q 1.7772302539062501 0.21499999999999997 1.7772302539062501 0.22599999999999998 L 1.7772302539062501 0.633 Q 1.7772302539062501 0.7070000000000001 1.81223025390625 0.743 Q 1.84723025390625 0.779 1.9102302539062501 0.779 Q 1.97223025390625 0.779 2.00723025390625 0.743 Q 2.04223025390625 0.7070000000000001 2.04223025390625 0.633 L 2.04223025390625 0.22599999999999998 Q 2.04223025390625 0.21499999999999997 2.04973025390625 0.20799999999999996 Q 2.05723025390625 0.20099999999999996 2.06723025390625 0.20099999999999996 L 2.17723025390625 0.20099999999999996 Q 2.1872302539062503 0.20099999999999996 2.19423025390625 0.20799999999999996 Q 2.20123025390625 0.21499999999999997 2.20123025390625 0.22599999999999998 L 2.20123025390625 0.634 Q 2.20123025390625 0.729 2.16523025390625 0.7905 Q 2.12923025390625 0.852 2.06423025390625 0.8815000000000001 Q 1.99923025390625 0.911 1.9102302539062501 0.911 M 2.4443343945312503 0.901 Q 2.4333343945312502 0.901 2.42633439453125 0.894 Q 2.41933439453125 0.887 2.41933439453125 0.876 L 2.41933439453125 0.22599999999999998 Q 2.41933439453125 0.21499999999999997 2.42633439453125 0.20799999999999996 Q 2.4333343945312502 0.20099999999999996 2.4443343945312503 0.20099999999999996 L 2.55533439453125 0.20099999999999996 Q 2.5663343945312502 0.20099999999999996 2.5733343945312503 0.20799999999999996 Q 2.58033439453125 0.21499999999999997 2.58033439453125 0.22599999999999998 L 2.58033439453125 0.767 L 2.89033439453125 0.767 Q 2.90133439453125 0.767 2.9083343945312503 0.774 Q 2.91533439453125 0.781 2.91533439453125 0.792 L 2.91533439453125 0.876 Q 2.91533439453125 0.887 2.9083343945312503 0.894 Q 2.90133439453125 0.901 2.89033439453125 0.901 L 2.4443343945312503 0.901 M 3.352484921875 0.911 Q 3.261484921875 0.911 3.195484921875 0.881 Q 3.129484921875 0.851 3.092484921875 0.7905 Q 3.055484921875 0.73 3.052484921875 0.638 Q 3.051484921875 0.595 3.051484921875 0.5525 Q 3.051484921875 0.51 3.052484921875 0.466 Q 3.055484921875 0.376 3.092984921875 0.3145 Q 3.130484921875 0.253 3.196984921875 0.22199999999999998 Q 3.263484921875 0.19100000000000006 3.352484921875 0.19100000000000006 Q 3.440484921875 0.19100000000000006 3.506984921875 0.22199999999999998 Q 3.573484921875 0.253 3.6114849218750003 0.3145 Q 3.649484921875 0.376 3.6514849218750003 0.466 Q 3.653484921875 0.51 3.653484921875 0.5525 Q 3.653484921875 0.595 3.6514849218750003 0.638 Q 3.648484921875 0.73 3.6114849218750003 0.7905 Q 3.5744849218750003 0.851 3.508484921875 0.881 Q 3.442484921875 0.911 3.352484921875 0.911 M 3.352484921875 0.782 Q 3.410484921875 0.782 3.4479849218750003 0.7465 Q 3.485484921875 0.7110000000000001 3.487484921875 0.633 Q 3.489484921875 0.589 3.489484921875 0.5505 Q 3.489484921875 0.512 3.487484921875 0.46900000000000003 Q 3.4864849218750003 0.41700000000000004 3.468484921875 0.384 Q 3.450484921875 0.351 3.420984921875 0.3355 Q 3.391484921875 0.32000000000000006 3.352484921875 0.32000000000000006 Q 3.313484921875 0.32000000000000006 3.283484921875 0.3355 Q 3.253484921875 0.351 3.235984921875 0.384 Q 3.218484921875 0.41700000000000004 3.2164849218750002 0.46900000000000003 Q 3.215484921875 0.512 3.215484921875 0.5505 Q 3.215484921875 0.589 3.2164849218750002 0.633 Q 3.219484921875 0.7110000000000001 3.256484921875 0.7465 Q 3.293484921875 0.782 3.352484921875 0.782 M 4.02057392578125 0.901 Q 4.00957392578125 0.901 4.00257392578125 0.894 Q 3.99557392578125 0.887 3.99557392578125 0.876 L 3.99557392578125 0.33999999999999997 L 3.8135739257812498 0.33999999999999997 Q 3.80357392578125 0.33999999999999997 3.79657392578125 0.33299999999999996 Q 3.7895739257812497 0.32599999999999996 3.7895739257812497 0.31600000000000006 L 3.7895739257812497 0.22599999999999998 Q 3.7895739257812497 0.21499999999999997 3.79657392578125 0.20799999999999996 Q 3.80357392578125 0.20099999999999996 3.8135739257812498 0.20099999999999996 L 4.33757392578125 0.20099999999999996 Q 4.34857392578125 0.20099999999999996 4.35557392578125 0.20799999999999996 Q 4.36257392578125 0.21499999999999997 4.36257392578125 0.22599999999999998 L 4.36257392578125 0.31600000000000006 Q 4.36257392578125 0.32599999999999996 4.35557392578125 0.33299999999999996 Q 4.34857392578125 0.33999999999999997 4.33757392578125 0.33999999999999997 L 4.15657392578125 0.33999999999999997 L 4.15657392578125 0.876 Q 4.15657392578125 0.887 4.14957392578125 0.894 Q 4.1425739257812495 0.901 4.13157392578125 0.901 L 4.02057392578125 0.901" fill="#390c14" fill-rule="nonzero"></path></g><g><path d=" M 7.03685339422746 0.911 Q 6.940853394227461 0.911 6.87635339422746 0.883 Q 6.811853394227461 0.855 6.77885339422746 0.81 Q 6.745853394227461 0.765 6.743853394227461 0.714 Q 6.743853394227461 0.706 6.74985339422746 0.6995 Q 6.755853394227461 0.6930000000000001 6.764853394227461 0.6930000000000001 L 6.87185339422746 0.6930000000000001 Q 6.884853394227461 0.6930000000000001 6.891853394227461 0.6985 Q 6.89885339422746 0.704 6.904853394227461 0.712 Q 6.91185339422746 0.729 6.9273533942274605 0.745 Q 6.942853394227461 0.761 6.969853394227461 0.7715000000000001 Q 6.996853394227461 0.782 7.03685339422746 0.782 Q 7.101853394227461 0.782 7.13435339422746 0.761 Q 7.166853394227461 0.74 7.166853394227461 0.704 Q 7.166853394227461 0.678 7.149353394227461 0.662 Q 7.131853394227461 0.646 7.09435339422746 0.633 Q 7.056853394227461 0.62 6.99485339422746 0.605 Q 6.91985339422746 0.589 6.867353394227461 0.5635 Q 6.814853394227461 0.538 6.78835339422746 0.4975 Q 6.761853394227461 0.457 6.761853394227461 0.397 Q 6.761853394227461 0.33699999999999997 6.79485339422746 0.2905 Q 6.827853394227461 0.244 6.88785339422746 0.21750000000000003 Q 6.947853394227461 0.19100000000000006 7.030853394227461 0.19100000000000006 Q 7.09785339422746 0.19100000000000006 7.149353394227461 0.20899999999999996 Q 7.200853394227461 0.22699999999999998 7.23535339422746 0.256 Q 7.269853394227461 0.28500000000000003 7.287853394227461 0.31800000000000006 Q 7.30585339422746 0.351 7.306853394227461 0.382 Q 7.306853394227461 0.39 7.3008533942274605 0.39649999999999996 Q 7.29485339422746 0.403 7.285853394227461 0.403 L 7.173853394227461 0.403 Q 7.163853394227461 0.403 7.155853394227461 0.399 Q 7.147853394227461 0.395 7.142853394227461 0.385 Q 7.136853394227461 0.359 7.10735339422746 0.3395 Q 7.077853394227461 0.32000000000000006 7.030853394227461 0.32000000000000006 Q 6.9818533942274605 0.32000000000000006 6.95335339422746 0.33799999999999997 Q 6.924853394227461 0.356 6.924853394227461 0.393 Q 6.924853394227461 0.41700000000000004 6.939353394227461 0.4335 Q 6.953853394227461 0.45 6.9883533942274605 0.4625 Q 7.022853394227461 0.47500000000000003 7.07985339422746 0.49 Q 7.1678533942274605 0.508 7.22285339422746 0.533 Q 7.277853394227461 0.558 7.303853394227461 0.5975 Q 7.32985339422746 0.637 7.32985339422746 0.6970000000000001 Q 7.32985339422746 0.764 7.292353394227461 0.812 Q 7.25485339422746 0.86 7.189353394227461 0.8855000000000001 Q 7.123853394227461 0.911 7.03685339422746 0.911 M 7.798940933289961 0.911 Q 7.710940933289961 0.911 7.644940933289961 0.8815000000000001 Q 7.57894093328996 0.852 7.542940933289961 0.7905 Q 7.50694093328996 0.729 7.50694093328996 0.634 L 7.50694093328996 0.22599999999999998 Q 7.50694093328996 0.21499999999999997 7.513940933289961 0.20799999999999996 Q 7.52094093328996 0.20099999999999996 7.5319409332899605 0.20099999999999996 L 7.6409409332899605 0.20099999999999996 Q 7.651940933289961 0.20099999999999996 7.65894093328996 0.20799999999999996 Q 7.665940933289961 0.21499999999999997 7.665940933289961 0.22599999999999998 L 7.665940933289961 0.633 Q 7.665940933289961 0.7070000000000001 7.70094093328996 0.743 Q 7.73594093328996 0.779 7.798940933289961 0.779 Q 7.86094093328996 0.779 7.89594093328996 0.743 Q 7.9309409332899605 0.7070000000000001 7.9309409332899605 0.633 L 7.9309409332899605 0.22599999999999998 Q 7.9309409332899605 0.21499999999999997 7.938440933289961 0.20799999999999996 Q 7.94594093328996 0.20099999999999996 7.955940933289961 0.20099999999999996 L 8.06594093328996 0.20099999999999996 Q 8.07594093328996 0.20099999999999996 8.08294093328996 0.20799999999999996 Q 8.089940933289961 0.21499999999999997 8.089940933289961 0.22599999999999998 L 8.089940933289961 0.634 Q 8.089940933289961 0.729 8.05394093328996 0.7905 Q 8.01794093328996 0.852 7.952940933289961 0.8815000000000001 Q 7.88794093328996 0.911 7.798940933289961 0.911 M 7.63494093328996 0.15100000000000002 Q 7.619940933289961 0.15100000000000002 7.619940933289961 0.137 Q 7.619940933289961 0.129 7.627940933289961 0.121 L 7.72794093328996 0.017000000000000015 Q 7.73894093328996 0.006000000000000005 7.746440933289961 0.0030000000000000027 Q 7.753940933289961 0 7.76294093328996 0 L 7.833940933289961 0 Q 7.843940933289961 0 7.85144093328996 0.0030000000000000027 Q 7.8589409332899605 0.006000000000000005 7.86894093328996 0.017000000000000015 L 7.9679409332899604 0.121 Q 7.976940933289961 0.129 7.976940933289961 0.137 Q 7.976940933289961 0.15100000000000002 7.96194093328996 0.15100000000000002 L 7.91694093328996 0.15100000000000002 Q 7.90894093328996 0.15100000000000002 7.9004409332899606 0.14949999999999997 Q 7.891940933289961 0.14800000000000002 7.88494093328996 0.14400000000000002 L 7.7979409332899605 0.09299999999999997 L 7.71194093328996 0.14400000000000002 Q 7.7049409332899605 0.14800000000000002 7.696440933289961 0.14949999999999997 Q 7.68794093328996 0.15100000000000002 7.67994093328996 0.15100000000000002 L 7.63494093328996 0.15100000000000002 M 8.333045073914962 0.901 Q 8.32204507391496 0.901 8.31504507391496 0.894 Q 8.308045073914961 0.887 8.308045073914961 0.876 L 8.308045073914961 0.22599999999999998 Q 8.308045073914961 0.21499999999999997 8.31504507391496 0.20799999999999996 Q 8.32204507391496 0.20099999999999996 8.333045073914962 0.20099999999999996 L 8.598045073914962 0.20099999999999996 Q 8.723045073914962 0.20099999999999996 8.795045073914961 0.25850000000000006 Q 8.867045073914962 0.31600000000000006 8.867045073914962 0.424 Q 8.867045073914962 0.497 8.832045073914962 0.546 Q 8.797045073914962 0.595 8.73804507391496 0.619 L 8.879045073914961 0.869 Q 8.882045073914961 0.875 8.882045073914961 0.88 Q 8.882045073914961 0.888 8.87604507391496 0.8945000000000001 Q 8.87004507391496 0.901 8.861045073914962 0.901 L 8.750045073914961 0.901 Q 8.73204507391496 0.901 8.723045073914962 0.8915000000000001 Q 8.714045073914962 0.882 8.710045073914962 0.874 L 8.58804507391496 0.645 L 8.467045073914962 0.645 L 8.467045073914962 0.876 Q 8.467045073914962 0.887 8.460045073914962 0.894 Q 8.45304507391496 0.901 8.442045073914962 0.901 L 8.333045073914962 0.901 M 8.467045073914962 0.518 L 8.595045073914962 0.518 Q 8.650045073914962 0.518 8.676545073914962 0.493 Q 8.70304507391496 0.468 8.70304507391496 0.423 Q 8.70304507391496 0.378 8.677045073914961 0.352 Q 8.651045073914961 0.32599999999999996 8.595045073914962 0.32599999999999996 L 8.467045073914962 0.32599999999999996 L 8.467045073914962 0.518" fill="#390c14" fill-rule="nonzero"></path></g><g><path d=" M 0.4792792508246669 2.0053213418570683 Q 0.4742792508246669 2.0053213418570683 0.47102925082466685 2.0020713418570684 Q 0.46777925082466687 1.9988213418570684 0.46777925082466687 1.9938213418570683 L 0.46777925082466687 1.6998213418570685 L 0.3717792508246669 1.6998213418570685 Q 0.3667792508246669 1.6998213418570685 0.36352925082466686 1.6965713418570683 Q 0.3602792508246669 1.6933213418570683 0.3602792508246669 1.6883213418570684 L 0.3602792508246669 1.6673213418570683 Q 0.3602792508246669 1.6618213418570682 0.36352925082466686 1.6585713418570682 Q 0.3667792508246669 1.6553213418570683 0.3717792508246669 1.6553213418570683 L 0.6127792508246669 1.6553213418570683 Q 0.6182792508246668 1.6553213418570683 0.6215292508246668 1.6585713418570682 Q 0.6247792508246669 1.6618213418570682 0.6247792508246669 1.6673213418570683 L 0.6247792508246669 1.6883213418570684 Q 0.6247792508246669 1.6933213418570683 0.6215292508246668 1.6965713418570683 Q 0.6182792508246668 1.6998213418570685 0.6127792508246669 1.6998213418570685 L 0.5172792508246669 1.6998213418570685 L 0.5172792508246669 1.9938213418570683 Q 0.5172792508246669 1.9988213418570684 0.5140292508246669 2.0020713418570684 Q 0.5107792508246669 2.0053213418570683 0.5052792508246668 2.0053213418570683 L 0.4792792508246669 2.0053213418570683 M 0.8000116726996669 2.0103213418570682 Q 0.757011672699667 2.0103213418570682 0.7265116726996669 1.9955713418570684 Q 0.6960116726996669 1.9808213418570684 0.679511672699667 1.9500713418570683 Q 0.6630116726996669 1.9193213418570683 0.6610116726996669 1.8728213418570683 Q 0.6605116726996669 1.8508213418570683 0.6605116726996669 1.8305713418570684 Q 0.6605116726996669 1.8103213418570683 0.6610116726996669 1.7883213418570683 Q 0.6630116726996669 1.7423213418570684 0.6802616726996669 1.7115713418570684 Q 0.6975116726996669 1.6808213418570683 0.7282616726996669 1.6655713418570683 Q 0.759011672699667 1.6503213418570684 0.8000116726996669 1.6503213418570684 Q 0.8405116726996669 1.6503213418570684 0.8712616726996669 1.6655713418570683 Q 0.902011672699667 1.6808213418570683 0.9195116726996668 1.7115713418570684 Q 0.9370116726996669 1.7423213418570684 0.938511672699667 1.7883213418570683 Q 0.9395116726996668 1.8103213418570683 0.9395116726996668 1.8305713418570684 Q 0.9395116726996668 1.8508213418570683 0.938511672699667 1.8728213418570683 Q 0.9370116726996669 1.9193213418570683 0.9202616726996669 1.9500713418570683 Q 0.9035116726996669 1.9808213418570684 0.8730116726996668 1.9955713418570684 Q 0.8425116726996669 2.0103213418570682 0.8000116726996669 2.0103213418570682 M 0.8000116726996669 1.9678213418570683 Q 0.8380116726996669 1.9678213418570683 0.8622616726996669 1.9448213418570683 Q 0.8865116726996669 1.9218213418570684 0.8885116726996669 1.8703213418570683 Q 0.8895116726996669 1.8478213418570684 0.8895116726996669 1.8300713418570682 Q 0.8895116726996669 1.8123213418570683 0.8885116726996669 1.7903213418570683 Q 0.8875116726996669 1.7558213418570683 0.8757616726996669 1.7343213418570684 Q 0.8640116726996669 1.7128213418570684 0.8445116726996669 1.7028213418570683 Q 0.8250116726996669 1.6928213418570683 0.8000116726996669 1.6928213418570683 Q 0.7750116726996669 1.6928213418570683 0.7555116726996669 1.7028213418570683 Q 0.7360116726996669 1.7128213418570684 0.7242616726996669 1.7343213418570684 Q 0.7125116726996669 1.7558213418570683 0.7110116726996669 1.7903213418570683 Q 0.7105116726996669 1.8123213418570683 0.7105116726996669 1.8300713418570682 Q 0.7105116726996669 1.8478213418570684 0.7110116726996669 1.8703213418570683 Q 0.7130116726996669 1.9218213418570684 0.7375116726996669 1.9448213418570683 Q 0.7620116726996669 1.9678213418570683 0.8000116726996669 1.9678213418570683 M 1.145262649262167 2.0103213418570682 Q 1.1032626492621669 2.0103213418570682 1.073012649262167 1.9953213418570683 Q 1.0427626492621669 1.9803213418570684 1.026512649262167 1.9495713418570684 Q 1.010262649262167 1.9188213418570683 1.010262649262167 1.8703213418570683 L 1.010262649262167 1.6673213418570683 Q 1.010262649262167 1.6618213418570682 1.013262649262167 1.6585713418570682 Q 1.016262649262167 1.6553213418570683 1.021762649262167 1.6553213418570683 L 1.0472626492621668 1.6553213418570683 Q 1.052762649262167 1.6553213418570683 1.0560126492621669 1.6585713418570682 Q 1.0592626492621668 1.6618213418570682 1.0592626492621668 1.6673213418570683 L 1.0592626492621668 1.8713213418570684 Q 1.0592626492621668 1.9203213418570684 1.082262649262167 1.9438213418570682 Q 1.1052626492621669 1.9673213418570683 1.145262649262167 1.9673213418570683 Q 1.184762649262167 1.9673213418570683 1.208012649262167 1.9438213418570682 Q 1.231262649262167 1.9203213418570684 1.231262649262167 1.8713213418570684 L 1.231262649262167 1.6673213418570683 Q 1.231262649262167 1.6618213418570682 1.234512649262167 1.6585713418570682 Q 1.237762649262167 1.6553213418570683 1.242762649262167 1.6553213418570683 L 1.2687626492621669 1.6553213418570683 Q 1.273762649262167 1.6553213418570683 1.277012649262167 1.6585713418570682 Q 1.280262649262167 1.6618213418570682 1.280262649262167 1.6673213418570683 L 1.280262649262167 1.8703213418570683 Q 1.280262649262167 1.9188213418570683 1.2640126492621668 1.9495713418570684 Q 1.247762649262167 1.9803213418570684 1.217762649262167 1.9953213418570683 Q 1.187762649262167 2.0103213418570682 1.145262649262167 2.0103213418570682 M 1.468507034027792 2.0103213418570682 Q 1.4430070340277918 2.0103213418570682 1.420257034027792 2.0038213418570683 Q 1.397507034027792 1.9973213418570683 1.379757034027792 1.9843213418570684 Q 1.3620070340277919 1.9713213418570683 1.351507034027792 1.9513213418570683 Q 1.341007034027792 1.9313213418570683 1.3400070340277919 1.9043213418570684 Q 1.3400070340277919 1.8998213418570684 1.343007034027792 1.8965713418570684 Q 1.3460070340277919 1.8933213418570682 1.351007034027792 1.8933213418570682 L 1.378007034027792 1.8933213418570682 Q 1.383507034027792 1.8933213418570682 1.386757034027792 1.8965713418570684 Q 1.390007034027792 1.8998213418570684 1.391007034027792 1.9048213418570683 Q 1.393007034027792 1.9273213418570683 1.404007034027792 1.9410713418570684 Q 1.415007034027792 1.9548213418570684 1.432007034027792 1.9613213418570683 Q 1.449007034027792 1.9678213418570683 1.469507034027792 1.9678213418570683 Q 1.507507034027792 1.9678213418570683 1.527507034027792 1.9428213418570683 Q 1.5475070340277919 1.9178213418570684 1.5475070340277919 1.8763213418570683 L 1.5475070340277919 1.6988213418570683 L 1.370007034027792 1.6988213418570683 Q 1.365007034027792 1.6988213418570683 1.361757034027792 1.6955713418570684 Q 1.358507034027792 1.6923213418570684 1.358507034027792 1.6873213418570683 L 1.358507034027792 1.6668213418570683 Q 1.358507034027792 1.6618213418570682 1.361757034027792 1.6585713418570682 Q 1.365007034027792 1.6553213418570683 1.370007034027792 1.6553213418570683 L 1.585507034027792 1.6553213418570683 Q 1.591007034027792 1.6553213418570683 1.594257034027792 1.6585713418570682 Q 1.597507034027792 1.6618213418570682 1.597507034027792 1.6673213418570683 L 1.597507034027792 1.8773213418570682 Q 1.597507034027792 1.9178213418570684 1.582007034027792 1.9478213418570682 Q 1.566507034027792 1.9778213418570683 1.538007034027792 1.9940713418570684 Q 1.5095070340277918 2.0103213418570682 1.468507034027792 2.0103213418570682 M 1.808243118012167 2.0103213418570682 Q 1.765243118012167 2.0103213418570682 1.734743118012167 1.9955713418570684 Q 1.704243118012167 1.9808213418570684 1.687743118012167 1.9500713418570683 Q 1.671243118012167 1.9193213418570683 1.669243118012167 1.8728213418570683 Q 1.668743118012167 1.8508213418570683 1.668743118012167 1.8305713418570684 Q 1.668743118012167 1.8103213418570683 1.669243118012167 1.7883213418570683 Q 1.671243118012167 1.7423213418570684 1.688493118012167 1.7115713418570684 Q 1.705743118012167 1.6808213418570683 1.736493118012167 1.6655713418570683 Q 1.767243118012167 1.6503213418570684 1.808243118012167 1.6503213418570684 Q 1.848743118012167 1.6503213418570684 1.879493118012167 1.6655713418570683 Q 1.910243118012167 1.6808213418570683 1.927743118012167 1.7115713418570684 Q 1.945243118012167 1.7423213418570684 1.946743118012167 1.7883213418570683 Q 1.947743118012167 1.8103213418570683 1.947743118012167 1.8305713418570684 Q 1.947743118012167 1.8508213418570683 1.946743118012167 1.8728213418570683 Q 1.945243118012167 1.9193213418570683 1.928493118012167 1.9500713418570683 Q 1.9117431180121671 1.9808213418570684 1.881243118012167 1.9955713418570684 Q 1.850743118012167 2.0103213418570682 1.808243118012167 2.0103213418570682 M 1.808243118012167 1.9678213418570683 Q 1.846243118012167 1.9678213418570683 1.8704931180121669 1.9448213418570683 Q 1.894743118012167 1.9218213418570684 1.896743118012167 1.8703213418570683 Q 1.8977431180121669 1.8478213418570684 1.8977431180121669 1.8300713418570682 Q 1.8977431180121669 1.8123213418570683 1.896743118012167 1.7903213418570683 Q 1.895743118012167 1.7558213418570683 1.883993118012167 1.7343213418570684 Q 1.872243118012167 1.7128213418570684 1.852743118012167 1.7028213418570683 Q 1.833243118012167 1.6928213418570683 1.808243118012167 1.6928213418570683 Q 1.783243118012167 1.6928213418570683 1.763743118012167 1.7028213418570683 Q 1.744243118012167 1.7128213418570684 1.732493118012167 1.7343213418570684 Q 1.720743118012167 1.7558213418570683 1.719243118012167 1.7903213418570683 Q 1.718743118012167 1.8123213418570683 1.718743118012167 1.8300713418570682 Q 1.718743118012167 1.8478213418570684 1.719243118012167 1.8703213418570683 Q 1.721243118012167 1.9218213418570684 1.745743118012167 1.9448213418570683 Q 1.770243118012167 1.9678213418570683 1.808243118012167 1.9678213418570683 M 2.153494094574667 2.0103213418570682 Q 2.111494094574667 2.0103213418570682 2.081244094574667 1.9953213418570683 Q 2.050994094574667 1.9803213418570684 2.034744094574667 1.9495713418570684 Q 2.018494094574667 1.9188213418570683 2.018494094574667 1.8703213418570683 L 2.018494094574667 1.6673213418570683 Q 2.018494094574667 1.6618213418570682 2.021494094574667 1.6585713418570682 Q 2.024494094574667 1.6553213418570683 2.029994094574667 1.6553213418570683 L 2.055494094574667 1.6553213418570683 Q 2.060994094574667 1.6553213418570683 2.064244094574667 1.6585713418570682 Q 2.067494094574667 1.6618213418570682 2.067494094574667 1.6673213418570683 L 2.067494094574667 1.8713213418570684 Q 2.067494094574667 1.9203213418570684 2.090494094574667 1.9438213418570682 Q 2.113494094574667 1.9673213418570683 2.153494094574667 1.9673213418570683 Q 2.192994094574667 1.9673213418570683 2.216244094574667 1.9438213418570682 Q 2.239494094574667 1.9203213418570684 2.239494094574667 1.8713213418570684 L 2.239494094574667 1.6673213418570683 Q 2.239494094574667 1.6618213418570682 2.242744094574667 1.6585713418570682 Q 2.245994094574667 1.6553213418570683 2.250994094574667 1.6553213418570683 L 2.276994094574667 1.6553213418570683 Q 2.281994094574667 1.6553213418570683 2.285244094574667 1.6585713418570682 Q 2.2884940945746672 1.6618213418570682 2.2884940945746672 1.6673213418570683 L 2.2884940945746672 1.8703213418570683 Q 2.2884940945746672 1.9188213418570683 2.272244094574667 1.9495713418570684 Q 2.255994094574667 1.9803213418570684 2.2259940945746672 1.9953213418570683 Q 2.195994094574667 2.0103213418570682 2.153494094574667 2.0103213418570682 M 2.384238479340292 2.0053213418570683 Q 2.378738479340292 2.0053213418570683 2.375738479340292 2.0020713418570684 Q 2.372738479340292 1.9988213418570684 2.372738479340292 1.9938213418570683 L 2.372738479340292 1.6673213418570683 Q 2.372738479340292 1.6618213418570682 2.375738479340292 1.6585713418570682 Q 2.378738479340292 1.6553213418570683 2.384238479340292 1.6553213418570683 L 2.506238479340292 1.6553213418570683 Q 2.562738479340292 1.6553213418570683 2.5957384793402922 1.6818213418570682 Q 2.628738479340292 1.7083213418570684 2.628738479340292 1.7603213418570682 Q 2.628738479340292 1.7988213418570682 2.609488479340292 1.8230713418570683 Q 2.590238479340292 1.8473213418570684 2.5572384793402922 1.8568213418570683 L 2.634238479340292 1.9898213418570683 Q 2.635738479340292 1.9928213418570684 2.635738479340292 1.9953213418570683 Q 2.635738479340292 1.9993213418570683 2.6324884793402923 2.0023213418570682 Q 2.629238479340292 2.0053213418570683 2.625238479340292 2.0053213418570683 L 2.6012384793402923 2.0053213418570683 Q 2.592738479340292 2.0053213418570683 2.588738479340292 2.000821341857068 Q 2.584738479340292 1.9963213418570684 2.581738479340292 1.9918213418570683 L 2.509238479340292 1.8648213418570683 L 2.421738479340292 1.8648213418570683 L 2.421738479340292 1.9938213418570683 Q 2.421738479340292 1.9988213418570684 2.418488479340292 2.0020713418570684 Q 2.415238479340292 2.0053213418570683 2.409738479340292 2.0053213418570683 L 2.384238479340292 2.0053213418570683 M 2.421738479340292 1.8223213418570683 L 2.504238479340292 1.8223213418570683 Q 2.541738479340292 1.8223213418570683 2.560238479340292 1.8065713418570684 Q 2.578738479340292 1.7908213418570684 2.578738479340292 1.7598213418570683 Q 2.578738479340292 1.7293213418570683 2.5604884793402922 1.7133213418570683 Q 2.542238479340292 1.6973213418570683 2.504238479340292 1.6973213418570683 L 2.421738479340292 1.6973213418570683 L 2.421738479340292 1.8223213418570683 M 2.813503127777792 2.0103213418570682 Q 2.770003127777792 2.0103213418570682 2.7405031277777923 1.9968213418570684 Q 2.711003127777792 1.9833213418570683 2.695253127777792 1.9620713418570683 Q 2.679503127777792 1.9408213418570683 2.678503127777792 1.9173213418570683 Q 2.678503127777792 1.9133213418570683 2.681753127777792 1.9100713418570683 Q 2.685003127777792 1.9068213418570683 2.689503127777792 1.9068213418570683 L 2.715003127777792 1.9068213418570683 Q 2.721003127777792 1.9068213418570683 2.724003127777792 1.9098213418570684 Q 2.727003127777792 1.9128213418570683 2.728003127777792 1.9168213418570683 Q 2.731003127777792 1.9288213418570683 2.7405031277777923 1.9405713418570683 Q 2.750003127777792 1.9523213418570684 2.7677531277777923 1.9600713418570683 Q 2.785503127777792 1.9678213418570683 2.813503127777792 1.9678213418570683 Q 2.856503127777792 1.9678213418570683 2.8767531277777922 1.9525713418570683 Q 2.897003127777792 1.9373213418570683 2.897003127777792 1.9118213418570684 Q 2.897003127777792 1.8943213418570684 2.886253127777792 1.8835713418570683 Q 2.875503127777792 1.8728213418570683 2.8535031277777922 1.8643213418570683 Q 2.831503127777792 1.8558213418570684 2.7965031277777923 1.8458213418570684 Q 2.760003127777792 1.8353213418570684 2.736003127777792 1.8228213418570682 Q 2.712003127777792 1.8103213418570683 2.700253127777792 1.7918213418570683 Q 2.688503127777792 1.7733213418570684 2.688503127777792 1.7448213418570684 Q 2.688503127777792 1.7178213418570683 2.703003127777792 1.6965713418570683 Q 2.717503127777792 1.6753213418570683 2.745003127777792 1.6628213418570683 Q 2.7725031277777923 1.6503213418570684 2.8110031277777923 1.6503213418570684 Q 2.842003127777792 1.6503213418570684 2.865253127777792 1.6585713418570682 Q 2.888503127777792 1.6668213418570683 2.9040031277777922 1.6805713418570685 Q 2.919503127777792 1.6943213418570684 2.927503127777792 1.7100713418570683 Q 2.935503127777792 1.7258213418570683 2.9360031277777923 1.7408213418570684 Q 2.9360031277777923 1.7443213418570682 2.933503127777792 1.7475713418570684 Q 2.931003127777792 1.7508213418570684 2.925503127777792 1.7508213418570684 L 2.899003127777792 1.7508213418570684 Q 2.895503127777792 1.7508213418570684 2.891753127777792 1.7488213418570684 Q 2.8880031277777922 1.7468213418570684 2.886003127777792 1.7413213418570683 Q 2.883003127777792 1.7208213418570684 2.863003127777792 1.7068213418570684 Q 2.8430031277777923 1.6928213418570683 2.8110031277777923 1.6928213418570683 Q 2.778503127777792 1.6928213418570683 2.758253127777792 1.7053213418570683 Q 2.738003127777792 1.7178213418570683 2.738003127777792 1.7443213418570682 Q 2.738003127777792 1.7613213418570683 2.747503127777792 1.7725713418570683 Q 2.757003127777792 1.7838213418570683 2.777503127777792 1.7923213418570683 Q 2.798003127777792 1.8008213418570684 2.8310031277777923 1.8103213418570683 Q 2.871003127777792 1.8213213418570684 2.896503127777792 1.8335713418570683 Q 2.922003127777792 1.8458213418570684 2.934253127777792 1.8640713418570682 Q 2.946503127777792 1.8823213418570683 2.946503127777792 1.9108213418570683 Q 2.946503127777792 1.9423213418570684 2.930003127777792 1.9645713418570683 Q 2.9135031277777923 1.9868213418570684 2.883753127777792 1.9985713418570683 Q 2.854003127777792 2.0103213418570682 2.813503127777792 2.0103213418570682 M 3.099504836762167 2.0053213418570683 Q 3.095504836762167 2.0053213418570683 3.092504836762167 2.0023213418570682 Q 3.089504836762167 1.9993213418570683 3.089504836762167 1.9953213418570683 Q 3.089504836762167 1.9928213418570684 3.090004836762167 1.9898213418570683 L 3.214004836762167 1.6663213418570684 Q 3.216004836762167 1.6613213418570683 3.2195048367621673 1.6583213418570684 Q 3.223004836762167 1.6553213418570683 3.230004836762167 1.6553213418570683 L 3.264004836762167 1.6553213418570683 Q 3.271004836762167 1.6553213418570683 3.274504836762167 1.6583213418570684 Q 3.2780048367621673 1.6613213418570683 3.280004836762167 1.6663213418570684 L 3.403504836762167 1.9898213418570683 Q 3.4045048367621673 1.9928213418570684 3.4045048367621673 1.9953213418570683 Q 3.4045048367621673 1.9993213418570683 3.401504836762167 2.0023213418570682 Q 3.398504836762167 2.0053213418570683 3.394504836762167 2.0053213418570683 L 3.369004836762167 2.0053213418570683 Q 3.363004836762167 2.0053213418570683 3.360254836762167 2.0023213418570682 Q 3.357504836762167 1.9993213418570683 3.3565048367621673 1.9968213418570684 L 3.329004836762167 1.9258213418570684 L 3.1650048367621673 1.9258213418570684 L 3.137504836762167 1.9968213418570684 Q 3.1370048367621672 1.9993213418570683 3.134004836762167 2.0023213418570682 Q 3.131004836762167 2.0053213418570683 3.1250048367621672 2.0053213418570683 L 3.099504836762167 2.0053213418570683 M 3.179504836762167 1.8828213418570683 L 3.314504836762167 1.8828213418570683 L 3.247004836762167 1.7053213418570683 L 3.179504836762167 1.8828213418570683 M 3.538240676605917 2.0053213418570683 Q 3.5307406766059173 2.0053213418570683 3.526490676605917 2.0018213418570685 Q 3.522240676605917 1.9983213418570684 3.519740676605917 1.9923213418570684 L 3.4082406766059172 1.6708213418570683 Q 3.4072406766059173 1.6678213418570684 3.4072406766059173 1.6653213418570683 Q 3.4072406766059173 1.6613213418570683 3.410240676605917 1.6583213418570684 Q 3.413240676605917 1.6553213418570683 3.417240676605917 1.6553213418570683 L 3.4432406766059174 1.6553213418570683 Q 3.449240676605917 1.6553213418570683 3.452490676605917 1.6585713418570682 Q 3.455740676605917 1.6618213418570682 3.456740676605917 1.6643213418570684 L 3.554240676605917 1.9478213418570682 L 3.652240676605917 1.6643213418570684 Q 3.6532406766059173 1.6618213418570682 3.656240676605917 1.6585713418570682 Q 3.659240676605917 1.6553213418570683 3.6652406766059173 1.6553213418570683 L 3.691240676605917 1.6553213418570683 Q 3.695240676605917 1.6553213418570683 3.698490676605917 1.6583213418570684 Q 3.701740676605917 1.6613213418570683 3.701740676605917 1.6653213418570683 Q 3.701740676605917 1.6678213418570684 3.700740676605917 1.6708213418570683 L 3.588740676605917 1.9923213418570684 Q 3.5867406766059173 1.9983213418570684 3.582490676605917 2.0018213418570685 Q 3.578240676605917 2.0053213418570683 3.5707406766059173 2.0053213418570683 L 3.538240676605917 2.0053213418570683 M 3.8784955594184174 2.0103213418570682 Q 3.8354955594184172 2.0103213418570682 3.8049955594184173 1.9955713418570684 Q 3.7744955594184173 1.9808213418570684 3.757995559418417 1.9500713418570683 Q 3.7414955594184174 1.9193213418570683 3.739495559418417 1.8728213418570683 Q 3.738995559418417 1.8508213418570683 3.738995559418417 1.8305713418570684 Q 3.738995559418417 1.8103213418570683 3.739495559418417 1.7883213418570683 Q 3.7414955594184174 1.7423213418570684 3.758745559418417 1.7115713418570684 Q 3.7759955594184174 1.6808213418570683 3.806745559418417 1.6655713418570683 Q 3.837495559418417 1.6503213418570684 3.8784955594184174 1.6503213418570684 Q 3.918995559418417 1.6503213418570684 3.949745559418417 1.6655713418570683 Q 3.9804955594184173 1.6808213418570683 3.9979955594184173 1.7115713418570684 Q 4.015495559418417 1.7423213418570684 4.016995559418417 1.7883213418570683 Q 4.017995559418417 1.8103213418570683 4.017995559418417 1.8305713418570684 Q 4.017995559418417 1.8508213418570683 4.016995559418417 1.8728213418570683 Q 4.015495559418417 1.9193213418570683 3.9987455594184174 1.9500713418570683 Q 3.9819955594184173 1.9808213418570684 3.9514955594184173 1.9955713418570684 Q 3.9209955594184174 2.0103213418570682 3.8784955594184174 2.0103213418570682 M 3.8784955594184174 1.9678213418570683 Q 3.916495559418417 1.9678213418570683 3.940745559418417 1.9448213418570683 Q 3.9649955594184174 1.9218213418570684 3.966995559418417 1.8703213418570683 Q 3.967995559418417 1.8478213418570684 3.967995559418417 1.8300713418570682 Q 3.967995559418417 1.8123213418570683 3.966995559418417 1.7903213418570683 Q 3.9659955594184173 1.7558213418570683 3.954245559418417 1.7343213418570684 Q 3.942495559418417 1.7128213418570684 3.922995559418417 1.7028213418570683 Q 3.9034955594184173 1.6928213418570683 3.8784955594184174 1.6928213418570683 Q 3.853495559418417 1.6928213418570683 3.833995559418417 1.7028213418570683 Q 3.8144955594184173 1.7128213418570684 3.802745559418417 1.7343213418570684 Q 3.790995559418417 1.7558213418570683 3.789495559418417 1.7903213418570683 Q 3.7889955594184173 1.8123213418570683 3.7889955594184173 1.8300713418570682 Q 3.7889955594184173 1.8478213418570684 3.789495559418417 1.8703213418570683 Q 3.791495559418417 1.9218213418570684 3.8159955594184174 1.9448213418570683 Q 3.840495559418417 1.9678213418570683 3.8784955594184174 1.9678213418570683 M 4.103246535980917 2.0053213418570683 Q 4.097746535980917 2.0053213418570683 4.094746535980917 2.0020713418570684 Q 4.091746535980917 1.9988213418570684 4.091746535980917 1.9938213418570683 L 4.091746535980917 1.6668213418570683 Q 4.091746535980917 1.6618213418570682 4.094746535980917 1.6585713418570682 Q 4.097746535980917 1.6553213418570683 4.103246535980917 1.6553213418570683 L 4.129746535980917 1.6553213418570683 Q 4.135246535980917 1.6553213418570683 4.138246535980917 1.6585713418570682 Q 4.141246535980917 1.6618213418570682 4.141246535980917 1.6668213418570683 L 4.141246535980917 1.9938213418570683 Q 4.141246535980917 1.9988213418570684 4.138246535980917 2.0020713418570684 Q 4.135246535980917 2.0053213418570683 4.129746535980917 2.0053213418570683 L 4.103246535980917 2.0053213418570683 M 4.240501662934042 2.0053213418570683 Q 4.235001662934042 2.0053213418570683 4.232001662934042 2.0020713418570684 Q 4.229001662934042 1.9988213418570684 4.229001662934042 1.9938213418570683 L 4.229001662934042 1.6673213418570683 Q 4.229001662934042 1.6618213418570682 4.232001662934042 1.6585713418570682 Q 4.235001662934042 1.6553213418570683 4.240501662934042 1.6553213418570683 L 4.362501662934042 1.6553213418570683 Q 4.4190016629340425 1.6553213418570683 4.452001662934042 1.6818213418570682 Q 4.485001662934042 1.7083213418570684 4.485001662934042 1.7603213418570682 Q 4.485001662934042 1.7988213418570682 4.465751662934042 1.8230713418570683 Q 4.446501662934042 1.8473213418570684 4.413501662934042 1.8568213418570683 L 4.490501662934042 1.9898213418570683 Q 4.492001662934042 1.9928213418570684 4.492001662934042 1.9953213418570683 Q 4.492001662934042 1.9993213418570683 4.4887516629340425 2.0023213418570682 Q 4.485501662934042 2.0053213418570683 4.4815016629340425 2.0053213418570683 L 4.4575016629340425 2.0053213418570683 Q 4.449001662934042 2.0053213418570683 4.445001662934042 2.000821341857068 Q 4.441001662934042 1.9963213418570684 4.438001662934043 1.9918213418570683 L 4.365501662934042 1.8648213418570683 L 4.2780016629340425 1.8648213418570683 L 4.2780016629340425 1.9938213418570683 Q 4.2780016629340425 1.9988213418570684 4.274751662934042 2.0020713418570684 Q 4.2715016629340425 2.0053213418570683 4.266001662934042 2.0053213418570683 L 4.240501662934042 2.0053213418570683 M 4.2780016629340425 1.8223213418570683 L 4.360501662934042 1.8223213418570683 Q 4.398001662934043 1.8223213418570683 4.416501662934042 1.8065713418570684 Q 4.4350016629340425 1.7908213418570684 4.4350016629340425 1.7598213418570683 Q 4.4350016629340425 1.7293213418570683 4.416751662934042 1.7133213418570683 Q 4.398501662934042 1.6973213418570683 4.360501662934042 1.6973213418570683 L 4.2780016629340425 1.6973213418570683 L 4.2780016629340425 1.8223213418570683 M 4.812513869965293 2.0103213418570682 Q 4.770513869965292 2.0103213418570682 4.740263869965292 1.9953213418570683 Q 4.710013869965293 1.9803213418570684 4.693763869965292 1.9495713418570684 Q 4.677513869965292 1.9188213418570683 4.677513869965292 1.8703213418570683 L 4.677513869965292 1.6673213418570683 Q 4.677513869965292 1.6618213418570682 4.680513869965292 1.6585713418570682 Q 4.683513869965292 1.6553213418570683 4.689013869965292 1.6553213418570683 L 4.714513869965292 1.6553213418570683 Q 4.7200138699652925 1.6553213418570683 4.723263869965292 1.6585713418570682 Q 4.726513869965292 1.6618213418570682 4.726513869965292 1.6673213418570683 L 4.726513869965292 1.8713213418570684 Q 4.726513869965292 1.9203213418570684 4.749513869965292 1.9438213418570682 Q 4.772513869965293 1.9673213418570683 4.812513869965293 1.9673213418570683 Q 4.852013869965292 1.9673213418570683 4.875263869965292 1.9438213418570682 Q 4.898513869965292 1.9203213418570684 4.898513869965292 1.8713213418570684 L 4.898513869965292 1.6673213418570683 Q 4.898513869965292 1.6618213418570682 4.901763869965293 1.6585713418570682 Q 4.905013869965292 1.6553213418570683 4.910013869965292 1.6553213418570683 L 4.936013869965293 1.6553213418570683 Q 4.941013869965293 1.6553213418570683 4.944263869965292 1.6585713418570682 Q 4.9475138699652925 1.6618213418570682 4.9475138699652925 1.6673213418570683 L 4.9475138699652925 1.8703213418570683 Q 4.9475138699652925 1.9188213418570683 4.931263869965292 1.9495713418570684 Q 4.915013869965293 1.9803213418570684 4.8850138699652925 1.9953213418570683 Q 4.855013869965292 2.0103213418570682 4.812513869965293 2.0103213418570682 M 5.043258254730917 2.0053213418570683 Q 5.037758254730917 2.0053213418570683 5.034758254730917 2.0020713418570684 Q 5.031758254730917 1.9988213418570684 5.031758254730917 1.9938213418570683 L 5.031758254730917 1.6673213418570683 Q 5.031758254730917 1.6618213418570682 5.034758254730917 1.6585713418570682 Q 5.037758254730917 1.6553213418570683 5.043258254730917 1.6553213418570683 L 5.066258254730918 1.6553213418570683 Q 5.072258254730917 1.6553213418570683 5.075258254730917 1.6580713418570683 Q 5.078258254730917 1.6608213418570683 5.078758254730917 1.6623213418570684 L 5.244758254730917 1.9173213418570683 L 5.244758254730917 1.6673213418570683 Q 5.244758254730917 1.6618213418570682 5.247758254730917 1.6585713418570682 Q 5.2507582547309175 1.6553213418570683 5.256258254730917 1.6553213418570683 L 5.280258254730917 1.6553213418570683 Q 5.285758254730918 1.6553213418570683 5.289008254730917 1.6585713418570682 Q 5.292258254730918 1.6618213418570682 5.292258254730918 1.6673213418570683 L 5.292258254730918 1.9933213418570683 Q 5.292258254730918 1.9983213418570684 5.289008254730917 2.0018213418570685 Q 5.285758254730918 2.0053213418570683 5.280758254730918 2.0053213418570683 L 5.256758254730918 2.0053213418570683 Q 5.251258254730917 2.0053213418570683 5.248508254730917 2.0023213418570682 Q 5.245758254730918 1.9993213418570683 5.244758254730917 1.9983213418570684 L 5.0792582547309175 1.7458213418570683 L 5.0792582547309175 1.9938213418570683 Q 5.0792582547309175 1.9988213418570684 5.076008254730917 2.0020713418570684 Q 5.072758254730918 2.0053213418570683 5.067258254730917 2.0053213418570683 L 5.043258254730917 2.0053213418570683 M 5.607259475434042 2.0103213418570682 Q 5.581759475434042 2.0103213418570682 5.559009475434042 2.0038213418570683 Q 5.536259475434043 1.9973213418570683 5.518509475434042 1.9843213418570684 Q 5.500759475434043 1.9713213418570683 5.490259475434042 1.9513213418570683 Q 5.479759475434042 1.9313213418570683 5.4787594754340425 1.9043213418570684 Q 5.4787594754340425 1.8998213418570684 5.481759475434043 1.8965713418570684 Q 5.484759475434043 1.8933213418570682 5.489759475434043 1.8933213418570682 L 5.516759475434043 1.8933213418570682 Q 5.522259475434042 1.8933213418570682 5.525509475434043 1.8965713418570684 Q 5.528759475434042 1.8998213418570684 5.529759475434043 1.9048213418570683 Q 5.5317594754340425 1.9273213418570683 5.542759475434043 1.9410713418570684 Q 5.553759475434043 1.9548213418570684 5.570759475434042 1.9613213418570683 Q 5.5877594754340425 1.9678213418570683 5.608259475434043 1.9678213418570683 Q 5.646259475434042 1.9678213418570683 5.6662594754340425 1.9428213418570683 Q 5.686259475434042 1.9178213418570684 5.686259475434042 1.8763213418570683 L 5.686259475434042 1.6988213418570683 L 5.508759475434043 1.6988213418570683 Q 5.503759475434042 1.6988213418570683 5.5005094754340425 1.6955713418570684 Q 5.497259475434042 1.6923213418570684 5.497259475434042 1.6873213418570683 L 5.497259475434042 1.6668213418570683 Q 5.497259475434042 1.6618213418570682 5.5005094754340425 1.6585713418570682 Q 5.503759475434042 1.6553213418570683 5.508759475434043 1.6553213418570683 L 5.724259475434042 1.6553213418570683 Q 5.729759475434042 1.6553213418570683 5.733009475434042 1.6585713418570682 Q 5.736259475434043 1.6618213418570682 5.736259475434043 1.6673213418570683 L 5.736259475434043 1.8773213418570682 Q 5.736259475434043 1.9178213418570684 5.7207594754340425 1.9478213418570682 Q 5.705259475434042 1.9778213418570683 5.676759475434042 1.9940713418570684 Q 5.648259475434043 2.0103213418570682 5.607259475434042 2.0103213418570682 M 5.946995559418418 2.0103213418570682 Q 5.9039955594184175 2.0103213418570682 5.8734955594184175 1.9955713418570684 Q 5.8429955594184175 1.9808213418570684 5.826495559418418 1.9500713418570683 Q 5.809995559418417 1.9193213418570683 5.807995559418417 1.8728213418570683 Q 5.807495559418418 1.8508213418570683 5.807495559418418 1.8305713418570684 Q 5.807495559418418 1.8103213418570683 5.807995559418417 1.7883213418570683 Q 5.809995559418417 1.7423213418570684 5.827245559418418 1.7115713418570684 Q 5.844495559418418 1.6808213418570683 5.875245559418417 1.6655713418570683 Q 5.905995559418417 1.6503213418570684 5.946995559418418 1.6503213418570684 Q 5.987495559418417 1.6503213418570684 6.018245559418418 1.6655713418570683 Q 6.048995559418417 1.6808213418570683 6.066495559418417 1.7115713418570684 Q 6.083995559418417 1.7423213418570684 6.085495559418417 1.7883213418570683 Q 6.086495559418418 1.8103213418570683 6.086495559418418 1.8305713418570684 Q 6.086495559418418 1.8508213418570683 6.085495559418417 1.8728213418570683 Q 6.083995559418417 1.9193213418570683 6.067245559418417 1.9500713418570683 Q 6.050495559418417 1.9808213418570684 6.019995559418417 1.9955713418570684 Q 5.989495559418417 2.0103213418570682 5.946995559418418 2.0103213418570682 M 5.946995559418418 1.9678213418570683 Q 5.984995559418417 1.9678213418570683 6.009245559418417 1.9448213418570683 Q 6.033495559418418 1.9218213418570684 6.035495559418417 1.8703213418570683 Q 6.036495559418418 1.8478213418570684 6.036495559418418 1.8300713418570682 Q 6.036495559418418 1.8123213418570683 6.035495559418417 1.7903213418570683 Q 6.034495559418417 1.7558213418570683 6.022745559418418 1.7343213418570684 Q 6.010995559418418 1.7128213418570684 5.991495559418418 1.7028213418570683 Q 5.971995559418417 1.6928213418570683 5.946995559418418 1.6928213418570683 Q 5.921995559418417 1.6928213418570683 5.902495559418417 1.7028213418570683 Q 5.882995559418418 1.7128213418570684 5.871245559418417 1.7343213418570684 Q 5.859495559418417 1.7558213418570683 5.857995559418417 1.7903213418570683 Q 5.8574955594184175 1.8123213418570683 5.8574955594184175 1.8300713418570682 Q 5.8574955594184175 1.8478213418570684 5.857995559418417 1.8703213418570683 Q 5.859995559418417 1.9218213418570684 5.884495559418418 1.9448213418570683 Q 5.908995559418417 1.9678213418570683 5.946995559418418 1.9678213418570683 M 6.171746535980917 2.0053213418570683 Q 6.1662465359809175 2.0053213418570683 6.163246535980917 2.0020713418570684 Q 6.160246535980917 1.9988213418570684 6.160246535980917 1.9938213418570683 L 6.160246535980917 1.6673213418570683 Q 6.160246535980917 1.6618213418570682 6.163246535980917 1.6585713418570682 Q 6.1662465359809175 1.6553213418570683 6.171746535980917 1.6553213418570683 L 6.308746535980918 1.6553213418570683 Q 6.346246535980917 1.6553213418570683 6.369996535980918 1.6675713418570683 Q 6.393746535980918 1.6798213418570684 6.404996535980917 1.7008213418570683 Q 6.4162465359809175 1.7218213418570683 6.4162465359809175 1.7478213418570683 Q 6.4162465359809175 1.7683213418570682 6.409496535980917 1.7830713418570683 Q 6.402746535980917 1.7978213418570683 6.392746535980917 1.8070713418570683 Q 6.3827465359809175 1.8163213418570683 6.373246535980917 1.8213213418570684 Q 6.392746535980917 1.8308213418570682 6.407996535980917 1.8523213418570683 Q 6.423246535980917 1.8738213418570684 6.423246535980917 1.9043213418570684 Q 6.423246535980917 1.9318213418570684 6.410746535980917 1.9548213418570684 Q 6.398246535980918 1.9778213418570683 6.373496535980918 1.9915713418570684 Q 6.348746535980918 2.0053213418570683 6.312746535980917 2.0053213418570683 L 6.171746535980917 2.0053213418570683 M 6.209246535980918 1.9648213418570684 L 6.306246535980917 1.9648213418570684 Q 6.338246535980917 1.9648213418570684 6.355746535980917 1.9473213418570683 Q 6.373246535980917 1.9298213418570684 6.373246535980917 1.9043213418570684 Q 6.373246535980917 1.8778213418570684 6.355746535980917 1.8605713418570684 Q 6.338246535980917 1.8433213418570684 6.306246535980917 1.8433213418570684 L 6.209246535980918 1.8433213418570684 L 6.209246535980918 1.9648213418570684 M 6.209246535980918 1.8033213418570684 L 6.301246535980917 1.8033213418570684 Q 6.333246535980917 1.8033213418570684 6.349746535980917 1.7885713418570683 Q 6.366246535980918 1.7738213418570683 6.366246535980918 1.7483213418570682 Q 6.366246535980918 1.7228213418570684 6.349746535980917 1.7093213418570683 Q 6.333246535980917 1.6958213418570685 6.301246535980917 1.6958213418570685 L 6.209246535980918 1.6958213418570685 L 6.209246535980918 1.8033213418570684 M 6.629758987152792 2.0053213418570683 Q 6.624258987152793 2.0053213418570683 6.6212589871527925 2.0020713418570684 Q 6.618258987152792 1.9988213418570684 6.618258987152792 1.9938213418570683 L 6.618258987152792 1.6673213418570683 Q 6.618258987152792 1.6618213418570682 6.6212589871527925 1.6585713418570682 Q 6.624258987152793 1.6553213418570683 6.629758987152792 1.6553213418570683 L 6.836258987152792 1.6553213418570683 Q 6.841758987152793 1.6553213418570683 6.844758987152792 1.6585713418570682 Q 6.847758987152792 1.6618213418570682 6.847758987152792 1.6673213418570683 L 6.847758987152792 1.6863213418570684 Q 6.847758987152792 1.6918213418570685 6.844758987152792 1.6948213418570683 Q 6.841758987152793 1.6978213418570682 6.836258987152792 1.6978213418570682 L 6.666258987152792 1.6978213418570682 L 6.666258987152792 1.8073213418570684 L 6.825258987152792 1.8073213418570684 Q 6.830758987152793 1.8073213418570684 6.833758987152793 1.8105713418570684 Q 6.836758987152793 1.8138213418570683 6.836758987152793 1.8193213418570684 L 6.836758987152793 1.8378213418570684 Q 6.836758987152793 1.8428213418570683 6.833758987152793 1.8460713418570682 Q 6.830758987152793 1.8493213418570684 6.825258987152792 1.8493213418570684 L 6.666258987152792 1.8493213418570684 L 6.666258987152792 1.9628213418570684 L 6.840258987152793 1.9628213418570684 Q 6.845758987152792 1.9628213418570684 6.8487589871527925 1.9658213418570682 Q 6.851758987152793 1.9688213418570684 6.851758987152793 1.9743213418570684 L 6.851758987152793 1.9938213418570683 Q 6.851758987152793 1.9988213418570684 6.8487589871527925 2.0020713418570684 Q 6.845758987152792 2.0053213418570683 6.840258987152793 2.0053213418570683 L 6.629758987152792 2.0053213418570683 M 6.933518020355917 2.0053213418570683 Q 6.928018020355918 2.0053213418570683 6.9250180203559175 2.0020713418570684 Q 6.922018020355917 1.9988213418570684 6.922018020355917 1.9938213418570683 L 6.922018020355917 1.6673213418570683 Q 6.922018020355917 1.6618213418570682 6.9250180203559175 1.6585713418570682 Q 6.928018020355918 1.6553213418570683 6.933518020355917 1.6553213418570683 L 6.956518020355918 1.6553213418570683 Q 6.962518020355917 1.6553213418570683 6.965518020355917 1.6580713418570683 Q 6.968518020355917 1.6608213418570683 6.969018020355917 1.6623213418570684 L 7.1350180203559175 1.9173213418570683 L 7.1350180203559175 1.6673213418570683 Q 7.1350180203559175 1.6618213418570682 7.138018020355918 1.6585713418570682 Q 7.141018020355918 1.6553213418570683 7.146518020355917 1.6553213418570683 L 7.170518020355917 1.6553213418570683 Q 7.176018020355918 1.6553213418570683 7.179268020355917 1.6585713418570682 Q 7.182518020355918 1.6618213418570682 7.182518020355918 1.6673213418570683 L 7.182518020355918 1.9933213418570683 Q 7.182518020355918 1.9983213418570684 7.179268020355917 2.0018213418570685 Q 7.176018020355918 2.0053213418570683 7.171018020355918 2.0053213418570683 L 7.147018020355918 2.0053213418570683 Q 7.141518020355917 2.0053213418570683 7.138768020355918 2.0023213418570682 Q 7.136018020355918 1.9993213418570683 7.1350180203559175 1.9983213418570684 L 6.969518020355918 1.7458213418570683 L 6.969518020355918 1.9938213418570683 Q 6.969518020355918 1.9988213418570684 6.966268020355917 2.0020713418570684 Q 6.963018020355918 2.0053213418570683 6.957518020355917 2.0053213418570683 L 6.933518020355917 2.0053213418570683 M 7.405019241059042 2.0053213418570683 Q 7.400019241059042 2.0053213418570683 7.396769241059043 2.0020713418570684 Q 7.3935192410590425 1.9988213418570684 7.3935192410590425 1.9938213418570683 L 7.3935192410590425 1.6673213418570683 Q 7.3935192410590425 1.6618213418570682 7.396769241059043 1.6585713418570682 Q 7.400019241059042 1.6553213418570683 7.405019241059042 1.6553213418570683 L 7.430019241059043 1.6553213418570683 Q 7.436019241059043 1.6553213418570683 7.439019241059043 1.6583213418570684 Q 7.442019241059042 1.6613213418570683 7.443019241059043 1.6633213418570683 L 7.548519241059043 1.8653213418570682 L 7.655019241059042 1.6633213418570683 Q 7.656019241059043 1.6613213418570683 7.658769241059042 1.6583213418570684 Q 7.661519241059042 1.6553213418570683 7.6675192410590425 1.6553213418570683 L 7.692019241059042 1.6553213418570683 Q 7.697519241059043 1.6553213418570683 7.700769241059042 1.6585713418570682 Q 7.704019241059043 1.6618213418570682 7.704019241059043 1.6673213418570683 L 7.704019241059043 1.9938213418570683 Q 7.704019241059043 1.9988213418570684 7.700769241059042 2.0020713418570684 Q 7.697519241059043 2.0053213418570683 7.692019241059042 2.0053213418570683 L 7.6675192410590425 2.0053213418570683 Q 7.662519241059043 2.0053213418570683 7.659269241059043 2.0020713418570684 Q 7.656019241059043 1.9988213418570684 7.656019241059043 1.9938213418570683 L 7.656019241059043 1.7478213418570683 L 7.572519241059043 1.9108213418570683 Q 7.570519241059043 1.9158213418570684 7.5665192410590425 1.9185713418570682 Q 7.562519241059043 1.9213213418570683 7.556519241059043 1.9213213418570683 L 7.541019241059042 1.9213213418570683 Q 7.5345192410590425 1.9213213418570683 7.531019241059043 1.9185713418570682 Q 7.527519241059043 1.9158213418570684 7.525019241059042 1.9108213418570683 L 7.441019241059043 1.7478213418570683 L 7.441019241059043 1.9938213418570683 Q 7.441019241059043 1.9988213418570684 7.437769241059042 2.0020713418570684 Q 7.434519241059043 2.0053213418570683 7.429519241059043 2.0053213418570683 L 7.405019241059042 2.0053213418570683 M 7.767772414887167 2.0053213418570683 Q 7.763772414887168 2.0053213418570683 7.7607724148871675 2.0023213418570682 Q 7.757772414887167 1.9993213418570683 7.757772414887167 1.9953213418570683 Q 7.757772414887167 1.9928213418570684 7.758272414887168 1.9898213418570683 L 7.882272414887168 1.6663213418570684 Q 7.8842724148871675 1.6613213418570683 7.887772414887167 1.6583213418570684 Q 7.891272414887168 1.6553213418570683 7.898272414887168 1.6553213418570683 L 7.9322724148871675 1.6553213418570683 Q 7.939272414887167 1.6553213418570683 7.942772414887168 1.6583213418570684 Q 7.946272414887168 1.6613213418570683 7.9482724148871675 1.6663213418570684 L 8.071772414887167 1.9898213418570683 Q 8.072772414887167 1.9928213418570684 8.072772414887167 1.9953213418570683 Q 8.072772414887167 1.9993213418570683 8.069772414887167 2.0023213418570682 Q 8.066772414887168 2.0053213418570683 8.062772414887167 2.0053213418570683 L 8.037272414887168 2.0053213418570683 Q 8.031272414887168 2.0053213418570683 8.028522414887167 2.0023213418570682 Q 8.025772414887168 1.9993213418570683 8.024772414887167 1.9968213418570684 L 7.997272414887168 1.9258213418570684 L 7.833272414887167 1.9258213418570684 L 7.805772414887167 1.9968213418570684 Q 7.805272414887168 1.9993213418570683 7.802272414887168 2.0023213418570682 Q 7.7992724148871675 2.0053213418570683 7.793272414887167 2.0053213418570683 L 7.767772414887167 2.0053213418570683 M 7.847772414887167 1.8828213418570683 L 7.982772414887168 1.8828213418570683 L 7.915272414887168 1.7053213418570683 L 7.847772414887167 1.8828213418570683 M 8.138513869965292 2.0053213418570683 Q 8.133013869965293 2.0053213418570683 8.130013869965293 2.0020713418570684 Q 8.127013869965293 1.9988213418570684 8.127013869965293 1.9938213418570683 L 8.127013869965293 1.6668213418570683 Q 8.127013869965293 1.6618213418570682 8.130013869965293 1.6585713418570682 Q 8.133013869965293 1.6553213418570683 8.138513869965292 1.6553213418570683 L 8.165013869965293 1.6553213418570683 Q 8.170513869965292 1.6553213418570683 8.173513869965292 1.6585713418570682 Q 8.176513869965293 1.6618213418570682 8.176513869965293 1.6668213418570683 L 8.176513869965293 1.9938213418570683 Q 8.176513869965293 1.9988213418570684 8.173513869965292 2.0020713418570684 Q 8.170513869965292 2.0053213418570683 8.165013869965293 2.0053213418570683 L 8.138513869965292 2.0053213418570683 M 8.275768996918417 2.0053213418570683 Q 8.270268996918418 2.0053213418570683 8.267268996918418 2.0020713418570684 Q 8.264268996918418 1.9988213418570684 8.264268996918418 1.9938213418570683 L 8.264268996918418 1.6673213418570683 Q 8.264268996918418 1.6618213418570682 8.267268996918418 1.6585713418570682 Q 8.270268996918418 1.6553213418570683 8.275768996918417 1.6553213418570683 L 8.298768996918417 1.6553213418570683 Q 8.304768996918417 1.6553213418570683 8.307768996918417 1.6580713418570683 Q 8.310768996918418 1.6608213418570683 8.311268996918418 1.6623213418570684 L 8.477268996918419 1.9173213418570683 L 8.477268996918419 1.6673213418570683 Q 8.477268996918419 1.6618213418570682 8.480268996918417 1.6585713418570682 Q 8.483268996918417 1.6553213418570683 8.488768996918418 1.6553213418570683 L 8.512768996918417 1.6553213418570683 Q 8.518268996918417 1.6553213418570683 8.521518996918418 1.6585713418570682 Q 8.524768996918418 1.6618213418570682 8.524768996918418 1.6673213418570683 L 8.524768996918418 1.9933213418570683 Q 8.524768996918418 1.9983213418570684 8.521518996918418 2.0018213418570685 Q 8.518268996918417 2.0053213418570683 8.513268996918418 2.0053213418570683 L 8.489268996918417 2.0053213418570683 Q 8.483768996918418 2.0053213418570683 8.481018996918417 2.0023213418570682 Q 8.478268996918418 1.9993213418570683 8.477268996918419 1.9983213418570684 L 8.311768996918417 1.7458213418570683 L 8.311768996918417 1.9938213418570683 Q 8.311768996918417 1.9988213418570684 8.308518996918417 2.0020713418570684 Q 8.305268996918418 2.0053213418570683 8.299768996918418 2.0053213418570683 L 8.275768996918417 2.0053213418570683" fill="#a5497e" fill-rule="nonzero"></path></g><g clip-path="url(#SvgjsClipPath1002)"><g clip-path="url(#a0d924f0c-56d7-407f-b66f-6e494c0cc9da71d4259d-9646-49fd-bb39-960db8cd25eb)"><path d=" M 5.583739472760274 0.7419008283092201 C 5.746779081935206 0.7419008283092201 5.878948799515872 0.6097311107285546 5.878948799515872 0.44669150155362236 C 5.878948799515872 0.28365189237868993 5.746779081935206 0.15148217479802473 5.583739472760274 0.15148217479802473 C 5.420699863585342 0.15148217479802473 5.2885301460046765 0.28365189237868993 5.2885301460046765 0.44669150155362214 C 5.2885301460046765 0.6097311107285546 5.420699863585342 0.7419008283092201 5.583739472760274 0.7419008283092201" fill="#390c14" transform="matrix(1,0,0,1,0,0)" fill-rule="nonzero"></path></g><g clip-path="url(#a0d924f0c-56d7-407f-b66f-6e494c0cc9da71d4259d-9646-49fd-bb39-960db8cd25eb)"><path d=" M 5.583739472760274 0.9131376796103041 C 5.841325104305556 0.9131376796103041 6.050123048994642 0.7043397349212175 6.050123048994642 0.4467541033759359 C 6.050123048994642 0.18912673728244556 5.841325104305556 -0.0196712074066413 5.583739472760274 -0.0196712074066413 C 5.3261538412149925 -0.0196712074066413 5.1173141619776965 0.18912673728244556 5.1173141619776965 0.4467541033759359 C 5.1173141619776965 0.7043397349212175 5.3261538412149925 0.9131376796103041 5.583739472760274 0.9131376796103041 Z" fill="none" transform="matrix(1,0,0,1,0,0)" fill-rule="nonzero" stroke-dasharray="none" stroke-miterlimit="4" stroke-linejoin="miter" stroke-linecap="butt" stroke-width="0.061057644029609025" stroke="#390c14"></path></g><g clip-path="url(#a0d924f0c-56d7-407f-b66f-6e494c0cc9da71d4259d-9646-49fd-bb39-960db8cd25eb)"><path d=" M 5.583739472760274 1.0472307830054741 C 5.9160299455994725 1.0472307830054741 6.185384719739662 0.777876008865285 6.185384719739662 0.44558553602608675 C 6.185384719739662 0.11329506318688864 5.9160299455994725 -0.15610144550150928 5.583739472760274 -0.15610144550150928 C 5.251448999921076 -0.15610144550150928 4.9820942257808865 0.11329506318688864 4.9820942257808865 0.44558553602608697 C 4.9820942257808865 0.7778760088652852 5.251448999921076 1.0472307830054741 5.583739472760274 1.0472307830054741 Z" fill="none" transform="matrix(1,0,0,1,0,0)" fill-rule="nonzero" stroke-dasharray="none" stroke-miterlimit="4" stroke-linejoin="miter" stroke-linecap="butt" stroke-width="0.061057644029609025" stroke="#390c14"></path></g><g clip-path="url(#a0d924f0c-56d7-407f-b66f-6e494c0cc9da71d4259d-9646-49fd-bb39-960db8cd25eb)"><path d=" M 5.583530800019229 1.0472307830054741 C 5.915821272858428 1.0472307830054741 6.185176046998617 0.777876008865285 6.185176046998617 0.44558553602608675 C 6.185176046998617 0.11329506318688864 5.915821272858428 -0.15610144550150928 5.583530800019229 -0.15610144550150928 C 5.251240327180032 -0.15610144550150928 4.981885553039842 0.11329506318688864 4.981885553039842 0.44558553602608697 C 4.981885553039842 0.7778760088652852 5.251240327180032 1.0472307830054741 5.583530800019229 1.0472307830054741 Z" fill="none" transform="matrix(1,0,0,1,0,0)" fill-rule="nonzero" stroke-dasharray="none" stroke-miterlimit="4" stroke-linejoin="miter" stroke-linecap="butt" stroke-width="0.010183229762969653" stroke="#c771a3"></path></g><g clip-path="url(#a0d924f0c-56d7-407f-b66f-6e494c0cc9da71d4259d-9646-49fd-bb39-960db8cd25eb)"><path d=" M 5.583530800019229 0.9126785995800062 C 5.841116431564511 0.9126785995800062 6.049872641705389 0.7038806548909196 6.049872641705389 0.446295023345638 C 6.049872641705389 0.18875112634856528 5.841116431564511 -0.020046818340521466 5.583530800019229 -0.020046818340521466 C 5.325945168473948 -0.020046818340521466 5.117147223784861 0.18875112634856528 5.117147223784861 0.446295023345638 C 5.117147223784861 0.7038806548909196 5.325945168473948 0.9126785995800062 5.583530800019229 0.9126785995800062 Z" fill="none" transform="matrix(1,0,0,1,0,0)" fill-rule="nonzero" stroke-dasharray="none" stroke-miterlimit="4" stroke-linejoin="miter" stroke-linecap="butt" stroke-width="0.010183229762969653" stroke="#c771a3"></path></g><g clip-path="url(#a0d924f0c-56d7-407f-b66f-6e494c0cc9da71d4259d-9646-49fd-bb39-960db8cd25eb)"><path d=" M 5.583739472760274 -0.6243213418570689 L 5.583739472760274 1.5328539859641417" fill="none" transform="matrix(1,0,0,1,0,0)" fill-rule="nonzero" stroke-dasharray="none" stroke-miterlimit="4" stroke-linejoin="round" stroke-linecap="round" stroke-width="0.061057644029609025" stroke="#390c14"></path></g><g clip-path="url(#a0d924f0c-56d7-407f-b66f-6e494c0cc9da71d4259d-9646-49fd-bb39-960db8cd25eb)"><path d=" M 4.49567806640625 0.4543080566017452 L 6.652853394227461 0.4543080566017452" fill="none" transform="matrix(1,0,0,1,0,0)" fill-rule="nonzero" stroke-dasharray="none" stroke-miterlimit="4" stroke-linejoin="round" stroke-linecap="round" stroke-width="0.061057644029609025" stroke="#390c14"></path></g><g clip-path="url(#SvgjsClipPath100071d4259d-9646-49fd-bb39-960db8cd25eb)"><path d=" M 5.583742269190668 -0.6030317047219317 L 5.583742269190668 1.5353213418570686" fill="none" transform="matrix(1,0,0,1,0,0)" fill-rule="nonzero" stroke-dasharray="none" stroke-miterlimit="4" stroke-linejoin="miter" stroke-linecap="butt" stroke-width="0.010183229762969653" stroke="#c771a3"></path></g><g clip-path="url(#SvgjsClipPath100071d4259d-9646-49fd-bb39-960db8cd25eb)"><path d=" M 4.501604463337792 0.4531888819001739 L 6.639957509916792 0.4531888819001739" fill="none" transform="matrix(1,0,0,1,0,0)" fill-rule="nonzero" stroke-dasharray="none" stroke-miterlimit="4" stroke-linejoin="miter" stroke-linecap="butt" stroke-width="0.010183229762969653" stroke="#c771a3"></path></g><g clip-path="url(#b0d924f0c-56d7-407f-b66f-6e494c0cc9da71d4259d-9646-49fd-bb39-960db8cd25eb)"><path d=" M 5.58691129842415 0.48677753510826327 C 5.606457151054438 0.48677753510826327 5.62230219530529 0.47093249085741107 5.62230219530529 0.451386638227123 C 5.62230219530529 0.4318407855968349 5.606457151054438 0.4159957413459823 5.58691129842415 0.4159957413459823 C 5.567365445793862 0.4159957413459823 5.5515204015430095 0.4318407855968349 5.5515204015430095 0.451386638227123 C 5.5515204015430095 0.47093249085741107 5.567365445793862 0.48677753510826327 5.58691129842415 0.48677753510826327" fill="#a5497e" transform="matrix(1,0,0,1,0,0)" fill-rule="nonzero"></path></g></g></g><defs><clipPath id="SvgjsClipPath1002"><path d=" M 4.49567806640625 -0.6243213418570686 h 2.1571753278212107 v 2.159642683714137 h -2.1571753278212107 Z"></path></clipPath><clipPath id="a0d924f0c-56d7-407f-b66f-6e494c0cc9da71d4259d-9646-49fd-bb39-960db8cd25eb"><path d=" M 4.46517011166555 1.5634036752530505 L 6.68340308351637 1.5634036752530505 L 6.68340308351637 -0.654829296597769 L 4.46517011166555 -0.654829296597769 Z"></path></clipPath><clipPath id="SvgjsClipPath100071d4259d-9646-49fd-bb39-960db8cd25eb"><path d=" M 4.49567806640625 -0.6243213418570686 L 6.652853394227461 -0.6243213418570686 L 6.652853394227461 1.5353213418570686 L 4.49567806640625 1.5353213418570686 Z"></path></clipPath><clipPath id="b0d924f0c-56d7-407f-b66f-6e494c0cc9da71d4259d-9646-49fd-bb39-960db8cd25eb"><path d=" M 4.46517011166555 1.5634036752530505 L 6.68340308351637 1.5634036752530505 L 6.68340308351637 -0.654829296597769 L 4.46517011166555 -0.654829296597769 Z"></path></clipPath></defs></svg>